# xmcd
#
# Track frame offsets: 
#        150
#        16607
#        30720
#        49752
#        65310
#        81572
#        99070
#        116090
#        132602
#        151590
#        169217
#
# Disc length: 2464 seconds
#
# Revision: 0
# Processed by: cddbd v1.5.2PL0 Copyright (c) Steve Scherf et al.
# Submitted via: ExactAudioCopy v1.0b3
#
DISCID=83099e0b
DTITLE=Melissa Manchester - For The Working Girl
DYEAR=1980
DGENRE=Blues
TTITLE0=If This Is Love
TTITLE1=Any Kind Of Fool
TTITLE2=Working Girl (For The)
TTITLE3=Without You
TTITLE4=Boys In The Backroom
TTITLE5=You And Me
TTITLE6=Talk
TTITLE7=A Fool's Affair
TTITLE8=Melissa Manchester and Peabo Bryson - Lovers After All
TTITLE9=Tears Of Joy
TTITLE10=Happier Than I've Ever Been
EXTD=
EXTT0=
EXTT1=
EXTT2=
EXTT3=
EXTT4=
EXTT5=
EXTT6=
EXTT7=
EXTT8=
EXTT9=
EXTT10=
PLAYORDER=
